# AST/ASF file generated using VICON BodyLanguage
# -----------------------------------------------
:version 1.10
:name VICON
:units
  mass 1.0
  length 0.45
  angle deg
:documentation
   .ast/.asf automatically generated from VICON data using
   VICON BodyBuilder and BodyLanguage model FoxedUp or BRILLIANT.MOD
:root
   order TX TY TZ RX RY RZ
   axis XYZ
   position 0 0 0  
   orientation 0 0 0 
:bonedata
  begin
     id 1 
     name lhipjoint
     direction 0.561001 -0.76473 0.316963 
     length 2.4722 
     axis 0 0 0  XYZ
  end
  begin
     id 2 
     name lfemur
     direction 0.34202 -0.939693 0  
     length 7.59403  
     axis 0 0 20  XYZ
    dof rx ry rz
    limits (-160.0 20.0)
           (-70.0 70.0)
           (-60.0 70.0)
  end
  begin
     id 3 
     name ltibia
     direction 0.34202 -0.939693 0   
     length 7.89655   
     axis 0 0 20   XYZ
    dof rx
    limits (-10.0 170.0)
  end
  begin
     id 4 
     name lfoot
     direction 0.061296 -0.168409 0.98381   
     length 2.73287   
     axis -90 7.62852e-016 20   XYZ
    dof rx rz
    limits (-45.0 90.0)
           (-70.0 20.0)
  end
  begin
     id 5 
     name ltoes
     direction 1.53547e-011 -4.21984e-011 1   
     length 1.37057   
     axis -90 7.62852e-016 20   XYZ
    dof rx
    limits (-90.0 20.0)
  end
  begin
     id 6 
     name rhipjoint
     direction -0.559611 -0.765599 0.317323   
     length 2.46939  
     axis 0 0 0  XYZ 
  end
  begin
     id 7 
     name rfemur
     direction -0.34202 -0.939693 0   
     length 7.53712   
     axis 0 0 -20   XYZ
    dof rx ry rz
    limits (-160.0 20.0)
           (-70.0 70.0)
           (-70.0 60.0)
  end
  begin
     id 8 
     name rtibia
     direction -0.34202 -0.939693 0   
     length 8.12549   
     axis 0 0 -20   XYZ
    dof rx
    limits (-10.0 170.0)
 end
 begin
     id 9 
     name rfoot
     direction -0.066984 -0.184037 0.980634   
     length 2.67541  
     axis -90 -7.62852e-016 -20   XYZ
    dof rx rz
    limits (-45.0 90.0)
           (-20.0 70.0)
  end
  begin
     id 10 
     name rtoes
     direction -1.53549e-011 -4.21786e-011 1   
     length 1.34085   
     axis -90 -7.62852e-016 -20   XYZ
    dof rx
    limits (-90.0 20.0)
  end
  begin
     id 11 
     name lowerback
     direction -0.0522728 0.992594 -0.109658   
     length 2.05633   
     axis 0 0 0   XYZ
    dof rx ry rz
    limits (-20.0 45.0)
           (-30.0 30.0)
           (-30.0 30.0)
  end
  begin
     id 12 
     name upperback
     direction 0.00589338 0.999977 0.00335704   
     length 2.05845   
     axis 0 0 0   XYZ
    dof rx ry rz
    limits (-20.0 45.0)
           (-30.0 30.0)
           (-30.0 30.0)
  end
  begin
     id 13 
     name thorax
     direction 0.0292928 0.998059 0.0549487   
     length 2.09281   
     axis 0 0 0   XYZ
    dof rx ry rz
    limits (-20.0 45.0)
           (-30.0 30.0)
           (-30.0 30.0)
  end
  begin
     id 14 
     name lowerneck
     direction 0.0356368 0.980775 0.191858   
     length 1.84767   
     axis 0 0 0   XYZ
    dof rx ry rz
    limits (-20.0 45.0)
           (-30.0 30.0)
           (-30.0 30.0)
  end
  begin
     id 15 
     name upperneck
     direction -0.0227605 0.98931 -0.14404   
     length 1.89582   
     axis 0 0 0   XYZ
    dof rx ry rz
    limits (-20.0 45.0)
           (-30.0 30.0)
           (-30.0 30.0)
  end
  begin
     id 16
     name head
     direction -0.00932985 0.997511 -0.0698904  
     length 1.90213  
     axis 0 0 0   XYZ
    dof rx ry rz
    limits (-20.0 45.0)
           (-30.0 30.0)
           (-30.0 30.0)
  end
  begin
     id 17 
     name lclavicle
     direction 0.873442 0.479511 0.0846686  
     length 3.41193  
     axis 0 0 0   XYZ
    dof ry rz
    limits (-20.0 10.0)
           (0.0 20.0)
  end
  begin
     id 18 
     name lhumerus
     direction 1 -4.4897e-011 -5.62117e-018   
     length 5.59864   
     axis 180 -30 -90   XYZ
    dof rx ry rz
    limits (-60.0 90.0)
           (-90.0 90.0)
           (-90.0 90.0)
  end
  begin
     id 19
     name lradius
     direction 1 -4.48966e-011 -6.26295e-027   
     length 3.59542   
     axis 180 -30 -90   XYZ
    dof rx
    limits (-10.0 170.0)
  end
  begin
     id 20
     name lwrist
     direction 1 -4.48947e-011 -1.74096e-026   
     length 1.79771   
     axis 1.04567e-014 90 90   XYZ
    dof ry
    limits (-180.0 0.0)
 end
  begin
     id 21 
     name lhand
     direction 1 -4.49085e-011 -3.48469e-026   
     length 0.572014   
     axis 2.22196e-014 90 90   XYZ
    dof rx rz
    limits (-90.0 90.0)
           (-45.0 45.0)
  end
  begin
     id 22 
     name lfingers
     direction 1 -4.48884e-011 -6.96135e-026   
     length 0.461173   
     axis 4.44383e-014 90 90   XYZ
    dof rx
    limits (0.0 90.0)
  end
  begin
     id 23
     name lthumb
     direction 0.707107 -6.34976e-011 0.707107   
     length 0.662154   
     axis -90 45 -5.4397e-014   XYZ
    dof rx rz
    limits (-45.0 45.0)
           (-45.0 45.0)
  end
  begin
     id 24 
     name rclavicle
     direction -0.890242 0.443271 0.104786   
     length 3.46753  
     axis 0 0 0   XYZ 
    dof ry rz
    limits (-10.0 20.0)
           (-20.0 0.0)
  end
  begin
     id 25 
     name rhumerus
     direction -1 -4.48963e-011 -5.41723e-018  
     length 5.8094   
     axis 180 30 90   XYZ
    dof rx ry rz
    limits (-90.0 60.0)
           (-90.0 90.0)
           (-90.0 90.0)
  end
  begin
     id 26 
     name rradius
     direction -1 -4.48958e-011 -6.51059e-027   
     length 3.66953   
     axis 180 30 90   XYZ
    dof rx
    limits (-10.0 170.0)
  end
  begin
     id 27 
     name rwrist
     direction -1 -4.48975e-011 -1.74124e-026   
     length 1.83476   
     axis 1.04567e-014 -90 -90   XYZ
    dof ry
    limits (-180.0 0.0)
  end
  begin
     id 28
     name rhand
     direction -1 -4.49013e-011 -3.48326e-026   
     length 0.57843   
     axis 2.22196e-014 -90 -90   XYZ
    dof rx rz
    limits (-90.0 90.0)
           (-45.0 45.0)
  end
  begin
     id 29
     name rfingers
     direction -1 -4.49023e-011 -6.9669e-026   
     length 0.466345   
     axis 4.44383e-014 -90 -90   XYZ
    dof rx
    limits (0.0 90.0)
  end
  begin
     id 30
     name rthumb
     direction -0.707107 -6.34926e-011 0.707107   
     length 0.669581   
     axis -90 -45 5.4397e-014   XYZ
    dof rx rz
    limits (-45.0 45.0)
           (-45.0 45.0)
  end
:hierarchy
  begin
    root lhipjoint rhipjoint lowerback
    lhipjoint lfemur
    lfemur ltibia
    ltibia lfoot
    lfoot ltoes
    rhipjoint rfemur
    rfemur rtibia
    rtibia rfoot
    rfoot rtoes
    lowerback upperback
    upperback thorax
    thorax lowerneck lclavicle rclavicle
    lowerneck upperneck
    upperneck head
    lclavicle lhumerus
    lhumerus lradius
    lradius lwrist
    lwrist lhand lthumb
    lhand lfingers
    rclavicle rhumerus
    rhumerus rradius
    rradius rwrist
    rwrist rhand rthumb
    rhand rfingers
  end

#!OML:ASF H:\SkateBoarding\Project 1\Capture day 1\Session 1\Skater.ASF
:FULLY-SPECIFIED
:DEGREES
1
root 5.5201 19.4815 -21.9038 0.232066 63.5991 -1.92613
lowerback 10.1581 -2.32325 -5.95138
upperback 0.355432 -3.81539 -1.28526
thorax -5.02484 -1.74108 2.53149
lowerneck -15.8973 -9.46576 -2.95373
upperneck 38.1395 -15.4509 6.48678
head 17.5575 -5.59241 0.47572
rclavicle 6.13251e-014 1.82882e-014
rhumerus -41.2154 25.0767 -97.0236
rradius 45.1736
rwrist -0.0820911
rhand -9.52593 2.32479
rfingers 7.12502
rthumb 16.4401 -26.9986
lclavicle 6.13251e-014 1.82882e-014
lhumerus -30.6158 -17.7608 95.4876
lradius 50.8152
lwrist 36.2455
lhand -31.4717 25.6138
lfingers 7.12502
lthumb -4.7386 55.5408
rfemur -23.5882 -3.26184 20.2215
rtibia 47.6533
rfoot -38.9409 -9.2098
rtoes -24.1327
lfemur -8.93944 -0.0360896 -17.4254
ltibia 41.6789
lfoot -51.1794 9.87422
ltoes -17.494
2
root 5.52344 19.4798 -21.6448 0.400531 62.8552 -1.73979
lowerback 10.0642 -2.21398 -6.17255
upperback 0.358194 -3.6874 -1.26595
thorax -4.96511 -1.67485 2.65287
lowerneck -15.9651 -9.41978 -3.09251
upperneck 37.9786 -15.3964 6.6515
head 17.5198 -5.57667 0.576496
rclavicle -3.27001e-014 7.95139e-016
rhumerus -40.8226 24.5144 -96.8666
rradius 44.5747
rwrist -0.0464834
rhand -8.94402 2.00212
rfingers 7.12502
rthumb 17.0003 -27.274
lclavicle -3.27001e-014 7.95139e-016
lhumerus -30.8869 -17.6109 95.3656
lradius 50.7442
lwrist 36.1325
lhand -31.5268 25.6129
lfingers 7.12502
lthumb -4.79184 55.5387
rfemur -23.8736 -2.84266 20.1843
rtibia 48.0489
rfoot -39.2285 -2.87429
rtoes -12.0118
lfemur -8.92384 0.387163 -17.5163
ltibia 41.8966
lfoot -51.3064 10.2485
ltoes -17.9316
3
root 5.53099 19.4786 -21.4021 0.685275 62.3482 -1.52106
lowerback 9.93518 -2.19358 -6.11816
upperback 0.353602 -3.64996 -1.38405
thorax -4.9121 -1.66045 2.48801
lowerneck -16.0531 -9.38784 -2.96477
upperneck 37.7995 -15.4384 6.78549
head 17.4516 -5.56659 0.599691
rclavicle 3.53837e-014 -1.90833e-014
rhumerus -40.3302 23.5296 -96.7006
rradius 43.9207
rwrist 0.113353
rhand -8.96036 1.12957
rfingers 7.12502
rthumb 16.9846 -28.1479
lclavicle 3.53837e-014 -1.90833e-014
lhumerus -31.1328 -17.68 95.1286
lradius 50.6979
lwrist 36.1561
lhand -31.3963 25.5127
lfingers 7.12502
lthumb -4.66585 55.4413
rfemur -24.3013 -2.84069 20.0852
rtibia 48.4896
rfoot -38.2223 -0.198239
rtoes -7.87397
lfemur -9.0939 0.549071 -17.6974
ltibia 42.1801
lfoot -51.4473 10.1058
ltoes -17.1506
4
root 5.53276 19.4766 -21.1618 0.739489 61.9025 -1.38706
lowerback 10.0597 -2.23986 -6.07039
upperback 0.381224 -3.71712 -1.46018
thorax -4.95526 -1.69384 2.39627
lowerneck -16.1493 -9.29972 -2.8659
upperneck 37.6207 -15.3749 6.89439
head 17.377 -5.52224 0.637736
rclavicle -4.6118e-014 -1.59028e-015
rhumerus -39.854 22.7133 -96.5298
rradius 43.3344
rwrist -0.109578
rhand -8.78907 0.828681
rfingers 7.12502
rthumb 17.1495 -28.4345
lclavicle -4.6118e-014 -1.59028e-015
lhumerus -31.3183 -17.5482 94.8465
lradius 50.6177
lwrist 36.1459
lhand -31.3906 25.4575
lfingers 7.12502
lthumb -4.66028 55.3862
rfemur -24.5769 -2.93758 20.034
rtibia 48.9105
rfoot -37.8086 -0.284589
rtoes -8.38512
lfemur -9.12007 0.655572 -17.8121
ltibia 42.4674
lfoot -51.4865 10.1562
ltoes -17.0348
5
root 5.53673 19.4787 -20.916 0.743612 61.4089 -1.33965
lowerback 10.0604 -2.2774 -6.09085
upperback 0.43765 -3.76579 -1.45768
thorax -4.89067 -1.72034 2.41489
lowerneck -16.2355 -9.19804 -2.87375
upperneck 37.4141 -15.2514 7.00584
head 17.2917 -5.47055 0.706496
rclavicle 5.60573e-014 0
rhumerus -39.2791 21.702 -96.1767
rradius 42.6867
rwrist -0.238801
rhand -9.48441 -0.128687
rfingers 7.12502
rthumb 16.4801 -29.4487
lclavicle 5.60573e-014 0
lhumerus -31.4628 -17.3766 94.6348
lradius 50.5526
lwrist 36.1276
lhand -31.1819 25.2324
lfingers 7.12502
lthumb -4.45877 55.1655
rfemur -24.8701 -3.00154 20.0625
rtibia 49.3352
rfoot -37.3791 -0.523449
rtoes -8.82999
lfemur -9.15916 0.881996 -17.8445
ltibia 42.748
lfoot -51.3821 10.5817
ltoes -17.4594
6
root 5.53628 19.4816 -20.6736 0.470822 60.8912 -1.6373
lowerback 10.4315 -2.25761 -5.7442
upperback 0.250717 -3.74374 -1.54486
thorax -5.32578 -1.70151 2.1533
lowerneck -16.1243 -9.16654 -2.80789
upperneck 37.3171 -15.2825 7.16056
head 17.2287 -5.46393 0.76196
rclavicle 8.02096e-014 1.98785e-014
rhumerus -39.2469 20.4033 -96.0522
rradius 42.2989
rwrist -0.629234
rhand -10.2641 -0.654841
rfingers 7.12502
rthumb 15.7293 -30.0356
lclavicle 8.02096e-014 1.98785e-014
lhumerus -32.0222 -17.4896 94.448
lradius 50.5571
lwrist 36.1559
lhand -30.8618 24.9489
lfingers 7.12502
lthumb -4.14969 54.8883
rfemur -25.2113 -3.04043 20.2993
rtibia 49.7241
rfoot -36.866 -0.715691
rtoes -8.76479
lfemur -9.25458 1.13916 -17.6719
ltibia 42.9997
lfoot -51.2197 10.8522
ltoes -17.6328
7
root 5.53814 19.4866 -20.4267 0.384874 60.3579 -1.66542
lowerback 10.3666 -2.21924 -5.75199
upperback 0.384274 -3.68144 -1.56005
thorax -5.15347 -1.67812 2.12614
lowerneck -16.2142 -9.12361 -2.75012
upperneck 37.0456 -15.2763 7.3082
head 17.1177 -5.44856 0.810226
rclavicle 3.80673e-014 1.19271e-014
rhumerus -38.5988 19.0216 -95.5553
rradius 41.7136
rwrist -0.921322
rhand -11.2415 -1.13649
rfingers 7.12502
rthumb 14.7878 -30.5889
lclavicle 3.80673e-014 1.19271e-014
lhumerus -32.0355 -17.5784 94.234
lradius 50.4498
lwrist 36.1601
lhand -30.546 24.7683
lfingers 7.12502
lthumb -3.8447 54.7134
rfemur -25.46 -3.15038 20.4278
rtibia 50.0973
rfoot -36.4933 -1.21628
rtoes -9.53202
lfemur -9.21583 1.53648 -17.5932
ltibia 43.1789
lfoot -51.0505 10.6612
ltoes -16.9659
8
root 5.54352 19.4941 -20.1787 0.361329 59.9043 -1.58151
lowerback 10.4826 -2.24181 -5.82251
upperback 0.423044 -3.72486 -1.54071
thorax -5.16861 -1.69741 2.19623
lowerneck -16.2632 -9.06129 -2.79649
upperneck 36.8689 -15.1902 7.39211
head 17.0436 -5.42028 0.86679
rclavicle 7.38485e-014 -7.95139e-016
rhumerus -38.1223 17.6376 -95.0444
rradius 41.1017
rwrist -1.09937
rhand -9.50592 -0.409162
rfingers 7.12502
rthumb 16.4594 -29.7309
lclavicle 7.38485e-014 -7.95139e-016
lhumerus -32.1502 -17.4344 94.0865
lradius 50.2916
lwrist 36.0952
lhand -30.2122 24.5075
lfingers 7.12502
lthumb -3.5224 54.4582
rfemur -25.6227 -3.29406 20.4975
rtibia 50.4258
rfoot -36.0783 -1.57351
rtoes -9.72015
lfemur -9.08347 1.88617 -17.5689
ltibia 43.2779
lfoot -50.82 10.7497
ltoes -17.0098
9
root 5.54838 19.5021 -19.925 0.414418 59.3501 -1.41403
lowerback 10.5599 -2.25074 -5.95646
upperback 0.462722 -3.75724 -1.5773
thorax -5.16166 -1.71079 2.23964
lowerneck -16.3087 -8.97972 -2.75224
upperneck 36.7209 -15.0973 7.44901
head 16.9709 -5.37919 0.898714
rclavicle 4.30369e-014 2.06736e-014
rhumerus -37.6613 16.1191 -94.6188
rradius 40.4821
rwrist -1.17815
rhand -10.6944 -0.707913
rfingers 7.12502
rthumb 15.3148 -30.1208
lclavicle 4.30369e-014 2.06736e-014
lhumerus -32.3384 -17.3212 93.8222
lradius 50.2294
lwrist 36.075
lhand -29.7899 24.2411
lfingers 7.12502
lthumb -3.11458 54.1981
rfemur -25.7766 -3.59131 20.553
rtibia 50.7283
rfoot -35.5073 -1.98405
rtoes -10.3006
lfemur -8.88536 2.38614 -17.5438
ltibia 43.3107
lfoot -50.6034 10.6632
ltoes -16.8147
10
root 5.55303 19.5103 -19.6726 0.526094 58.8208 -1.14995
lowerback 10.6631 -2.22501 -6.14403
upperback 0.504048 -3.75289 -1.63642
thorax -5.16851 -1.70439 2.28554
lowerneck -16.3232 -8.91253 -2.64597
upperneck 36.5698 -15.0284 7.46768
head 16.8795 -5.34564 0.900583
rclavicle 7.95139e-015 -2.94201e-014
rhumerus -37.2585 14.3938 -94.1387
rradius 39.9126
rwrist -1.28501
rhand -11.6173 -0.823049
rfingers 7.12502
rthumb 14.4258 -30.3017
lclavicle 7.95139e-015 -2.94201e-014
lhumerus -32.4909 -17.3134 93.5961
lradius 50.0897
lwrist 36.057
lhand -29.3821 24.0067
lfingers 7.12502
lthumb -2.72074 53.969
rfemur -25.8497 -3.83291 20.5518
rtibia 50.9711
rfoot -35.0527 -2.32232
rtoes -10.8356
lfemur -8.63357 2.8445 -17.5855
ltibia 43.2838
lfoot -50.3447 10.7726
ltoes -16.8465
11
root 5.56154 19.5177 -19.4266 0.701652 58.3357 -0.908035
lowerback 10.489 -2.26537 -6.31333
upperback 0.674591 -3.80141 -1.64353
thorax -4.87659 -1.73689 2.36454
lowerneck -16.5262 -8.83347 -2.57455
upperneck 36.3972 -14.9206 7.44966
head 16.8189 -5.30113 0.890076
rclavicle -3.00165e-014 -7.15625e-015
rhumerus -36.6014 12.9471 -93.5933
rradius 39.3294
rwrist -1.52798
rhand -12.8389 -1.00768
rfingers 7.12502
rthumb 13.2485 -30.5666
lclavicle -3.00165e-014 -7.15625e-015
lhumerus -32.3341 -17.0937 93.2981
lradius 49.8646
lwrist 36.1225
lhand -28.7844 23.2049
lfingers 7.12502
lthumb -2.1435 53.1739
rfemur -25.9895 -4.2633 20.5509
rtibia 51.166
rfoot -34.4724 -2.69726
rtoes -11.744
lfemur -8.46085 3.16395 -17.651
ltibia 43.2494
lfoot -50.1718 10.6877
ltoes -16.3733
12
root 5.5702 19.526 -19.1766 0.861837 57.7747 -0.72288
lowerback 10.4959 -2.26274 -6.37351
upperback 0.651017 -3.80947 -1.6962
thorax -4.90456 -1.73851 2.34506
lowerneck -16.5847 -8.75076 -2.49917
upperneck 36.3586 -14.8059 7.40222
head 16.7896 -5.25386 0.876826
rclavicle -7.54388e-014 -3.18055e-015
rhumerus -36.3078 11.4052 -93.1708
rradius 38.807
rwrist -1.68708
rhand -14.1892 -1.15695
rfingers 7.12502
rthumb 11.9467 -30.7961
lclavicle -7.54388e-014 -3.18055e-015
lhumerus -32.4838 -16.9716 93.0748
lradius 49.6494
lwrist 36.0512
lhand -28.3511 22.7755
lfingers 7.12502
lthumb -1.725 52.7482
rfemur -26.0863 -4.43092 20.5928
rtibia 51.2836
rfoot -34.1354 -2.89269
rtoes -12.389
lfemur -8.28654 3.60708 -17.6649
ltibia 43.1832
lfoot -50.0127 10.8188
ltoes -16.5607
13
root 5.5769 19.5329 -18.9213 0.94486 57.1584 -0.605661
lowerback 10.5069 -2.23848 -6.5004
upperback 0.623749 -3.79497 -1.69672
thorax -4.93274 -1.72715 2.41437
lowerneck -16.6415 -8.67049 -2.48423
upperneck 36.3611 -14.6703 7.33232
head 16.783 -5.20713 0.86842
rclavicle -1.63003e-014 -3.97569e-015
rhumerus -36.1014 9.94542 -92.766
rradius 38.3129
rwrist -1.73119
rhand -15.3339 -1.26796
rfingers 7.12502
rthumb 10.8427 -30.9681
lclavicle -1.63003e-014 -3.97569e-015
lhumerus -32.68 -16.7948 92.8865
lradius 49.4758
lwrist 35.9765
lhand -27.9305 22.3015
lfingers 7.12502
lthumb -1.3188 52.2772
rfemur -26.0989 -4.70164 20.7138
rtibia 51.3346
rfoot -33.6099 -3.0274
rtoes -12.8571
lfemur -8.07434 4.07602 -17.5967
ltibia 43.1345
lfoot -49.8734 10.8885
ltoes -16.5178
14
root 5.58743 19.5396 -18.6745 1.09004 56.6068 -0.49739
lowerback 10.4971 -2.27731 -6.46426
upperback 0.553256 -3.84791 -1.72267
thorax -5.00138 -1.75096 2.37585
lowerneck -16.7297 -8.56925 -2.43782
upperneck 36.4087 -14.4943 7.19791
head 16.7934 -5.14526 0.834152
rclavicle 1.98785e-016 1.19271e-014
rhumerus -35.9751 8.62956 -92.4203
rradius 37.9103
rwrist -2.04322
rhand -17.1401 -1.52879
rfingers 7.12502
rthumb 9.1002 -31.3125
lclavicle 1.98785e-016 1.19271e-014
lhumerus -32.8817 -16.5171 92.6753
lradius 49.2572
lwrist 35.7519
lhand -27.5196 21.8533
lfingers 7.12502
lthumb -0.921911 51.8311
rfemur -26.1493 -4.85064 20.7816
rtibia 51.3029
rfoot -33.065 -3.13029
rtoes -13.52
lfemur -7.92452 4.29252 -17.5985
ltibia 43.0805
lfoot -49.9526 10.858
ltoes -16.2403
15
root 5.60578 19.5451 -18.4214 1.34724 55.8051 -0.452633
lowerback 10.1339 -2.19761 -6.43152
upperback 0.480329 -3.71545 -1.74621
thorax -4.88977 -1.69048 2.29901
lowerneck -16.8086 -8.49067 -2.28805
upperneck 36.4225 -14.3677 7.02775
head 16.7732 -5.09639 0.757695
rclavicle 7.55382e-015 -4.77083e-015
rhumerus -35.8363 7.20701 -92.0141
rradius 37.5477
rwrist -2.42697
rhand -18.2863 -1.77312
rfingers 7.12502
rthumb 7.994 -31.6019
lclavicle 7.55382e-015 -4.77083e-015
lhumerus -33.062 -16.4301 92.5024
lradius 49.0428
lwrist 35.5668
lhand -27.2584 21.5497
lfingers 7.12502
lthumb -0.669667 51.5284
rfemur -26.2797 -4.85904 20.9034
rtibia 51.2016
rfoot -32.5116 -2.66181
rtoes -13.6357
lfemur -7.88229 4.85909 -17.5659
ltibia 43.0054
lfoot -49.9432 11.3675
ltoes -16.6316
